<svg width="1138" height="693" viewBox="0 0 1138 693" fill="none" xmlns="http://www.w3.org/2000/svg">
<g clip-path="url(#clip0)">
<path d="M573 668C757.463 668 907 518.463 907 334C907 149.537 757.463 0 573 0C388.537 0 239 149.537 239 334C239 518.463 388.537 668 573 668Z" fill="#F5F5F5"/>
<path d="M955.854 77.7961L935.429 129.229C939.381 147.119 943.247 167.295 946.349 188.778L982.715 112.674L983.311 113.592C974.98 99.1928 965.506 86.7701 955.226 76.9486L955.854 77.7961Z" fill="#E20000"/>
<path d="M934.73 126.092L954.516 76.2705C942.915 65.3625 930.302 57.7674 917.145 54.4152C916.46 54.2408 915.779 54.0883 915.098 53.9384C916.685 58.6599 925.817 86.4345 934.73 126.092Z" fill="#E20000"/>
<path d="M1018.3 236.428L1018.76 237.569C1018.27 229.803 1017.51 222.121 1016.46 214.522L953.242 293.532L953.012 293.019C952.875 297.682 952.67 302.281 952.397 306.817L1018.3 236.428Z" fill="#E20000"/>
<path d="M1006.76 169.966L1007.29 171.014C1001.74 151.351 993.887 132.414 983.883 114.6L946.824 192.154C949.64 212.303 951.525 231.746 952.477 250.484L1006.76 169.966Z" fill="#E20000"/>
<path d="M831.027 119.692C826.318 133.461 823.011 147.671 821.158 162.105L950.174 237.478C949.021 221.242 947.273 205.708 945.247 191.354L830.889 120.912L831.027 119.692Z" fill="#E20000"/>
<path d="M819.455 178.946L819.572 177.719L951.034 252.05C950.849 248.062 950.624 244.109 950.362 240.19L820.87 164.538L820.995 163.313C820.339 168.399 819.825 173.61 819.455 178.946Z" fill="#E20000"/>
<path d="M1015.76 211.96L1016.26 213.059C1014.31 199.296 1011.44 185.68 1007.66 172.303L952.646 253.91C953.21 266.408 953.352 278.542 953.071 290.312L1015.76 211.96Z" fill="#E20000"/>
<path d="M945.884 358.273C940.639 384.303 932.594 407.514 921.82 427.642C936.886 414.796 996.699 360.395 1014.4 292.436L945.884 358.273Z" fill="#E20000"/>
<path d="M822.973 237.978C825.792 251.03 829.481 263.879 834.018 276.438L834.223 275.108L944.703 355.466C947.502 340.872 949.423 326.124 950.455 311.3L822.973 237.978Z" fill="#E20000"/>
<path d="M933.305 126.437C923.652 83.5329 913.759 54.6955 913.616 54.282L914.235 53.7514C894.022 49.597 875.427 56.1943 860.119 71.0108L933.305 126.437Z" fill="#E20000"/>
<path d="M952.164 310.327C952.069 311.732 951.98 313.145 951.872 314.538C950.855 327.902 949.111 341.2 946.648 354.374L1014.52 289.16L1014.94 290.29C1017.96 278.299 1019.44 265.975 1019.36 253.61C1019.31 248.753 1019.14 243.915 1018.85 239.099L952.164 310.327Z" fill="#E20000"/>
<path d="M944.836 188.49C941.754 167.253 937.927 147.316 934.018 129.635L859.153 72.9366L859.348 71.7555C847.918 83.1066 838.37 99.0901 831.409 118.623L944.836 188.49Z" fill="#E20000"/>
<path d="M944.248 357.781L834.576 278.011C861.757 353.326 914.766 425.681 918.161 430.274C930.721 408.224 939.042 383.496 944.248 357.781Z" fill="#E20000"/>
<path d="M950.571 308.767L950.634 308.699C951.776 290.727 951.948 272.706 951.151 254.715L819.365 180.2C818.895 187.432 818.699 194.867 818.776 202.507C818.98 213.433 820.18 224.317 822.361 235.026L950.571 308.767Z" fill="#E20000"/>
<path d="M1136.13 364.05L1087.6 390.636C1079.23 406.935 1069.34 424.94 1058.03 443.466L1134.58 408.045L1134.45 409.132C1137.22 392.729 1137.84 377.118 1136.19 362.997L1136.13 364.05Z" fill="#E20000"/>
<path d="M1089.06 387.774L1136.08 362.022C1134.1 346.221 1129.23 332.327 1121.23 321.353C1120.82 320.782 1120.39 320.23 1119.96 319.68C1118.17 324.329 1107.49 351.546 1089.06 387.774Z" fill="#E20000"/>
<path d="M1083.05 526.057L1082.68 527.228C1087.25 520.936 1091.56 514.531 1095.61 508.012L996.522 528.542L996.671 528C993.592 531.504 990.501 534.916 987.397 538.235L1083.05 526.057Z" fill="#E20000"/>
<path d="M1116.55 467.508L1116.3 468.655C1124.56 449.971 1130.59 430.374 1134.25 410.274L1056.24 446.368C1045.56 463.683 1034.61 479.86 1023.39 494.899L1116.55 467.508Z" fill="#E20000"/>
<path d="M1013.27 316.702C1000.86 324.303 989.252 333.138 978.618 343.073L1029.91 483.413C1039.38 470.173 1047.94 457.094 1055.54 444.746L1012.39 317.553L1013.27 316.702Z" fill="#E20000"/>
<path d="M966.565 354.957L967.438 354.087L1021.28 495.185C1023.68 491.995 1026.03 488.807 1028.33 485.622L976.844 344.763L977.722 343.899C973.973 347.398 970.253 351.084 966.565 354.957Z" fill="#E20000"/>
<path d="M1096.7 505.593L1096.38 506.756C1103.66 494.915 1110.14 482.596 1115.76 469.883L1021.33 497.645C1013.8 507.631 1006.17 517.067 998.444 525.953L1096.7 505.593Z" fill="#E20000"/>
<path d="M949.561 573.712C928.92 590.414 907.92 603.16 886.783 611.79C906.581 611.506 987.346 607.757 1044.33 566.707L949.561 573.712Z" fill="#E20000"/>
<path d="M931.623 402.667C925.469 414.518 920.116 426.767 915.599 439.334L916.606 438.44L950.443 570.796C961.906 561.341 972.793 551.208 983.043 540.449L931.623 402.667Z" fill="#E20000"/>
<path d="M1087.74 387.131C1107.67 347.93 1118.45 319.41 1118.6 319L1119.41 318.986C1106.5 302.895 1087.97 296.115 1066.73 297.763L1087.74 387.131Z" fill="#E20000"/>
<path d="M984.98 540.789C984.01 541.811 983.04 542.842 982.068 543.846C972.761 553.49 962.936 562.62 952.637 571.196L1046.5 564.257L1046.11 565.397C1056.08 558.086 1065.08 549.541 1072.91 539.967C1075.97 536.191 1078.92 532.357 1081.77 528.467L984.98 540.789Z" fill="#E20000"/>
<path d="M1057.04 442.279C1068.22 423.956 1077.98 406.16 1086.25 390.049L1064.75 298.63L1065.66 297.845C1049.61 299.297 1032.07 305.518 1014.25 316.122L1057.04 442.279Z" fill="#E20000"/>
<path d="M948.615 572.289L915.026 440.901C887.923 516.245 882.601 605.781 882.286 611.484C906.024 602.513 928.204 588.775 948.615 572.289Z" fill="#E20000"/>
<path d="M984.748 538.572L984.839 538.561C997.182 525.446 1008.81 511.677 1019.67 497.312L965.696 355.866C960.722 361.136 955.828 366.738 951.015 372.671C944.203 381.216 938.185 390.364 933.034 400.003L984.748 538.572Z" fill="#E20000"/>
<path d="M810.134 281.031L806.607 336.258C815.895 352.051 825.808 370.043 835.399 389.516L846.461 305.898L847.311 306.586C834.937 295.468 822.087 286.582 809.275 280.419L810.134 281.031Z" fill="#E20000"/>
<path d="M804.973 333.491L808.39 279.994C793.985 273.206 779.643 269.881 766.094 270.76C765.389 270.805 764.694 270.871 764 270.939C766.969 274.938 784.239 298.53 804.973 333.491Z" fill="#E20000"/>
<path d="M918.556 412.592L919.345 413.535C916.481 406.301 913.378 399.231 910.036 392.327L874.334 487.01L873.956 486.593C875.267 491.07 876.494 495.507 877.636 499.906L918.556 412.592Z" fill="#E20000"/>
<path d="M887.038 352.951L887.868 353.784C876.513 336.799 863.187 321.218 848.167 307.368L836.894 392.579C845.8 410.872 853.602 428.78 860.3 446.306L887.038 352.951Z" fill="#E20000"/>
<path d="M704.37 359.459C704.147 374.009 705.395 388.545 708.094 402.845L854.09 434.649C847.974 419.565 841.511 405.331 835.147 392.306L704.616 360.662L704.37 359.459Z" fill="#E20000"/>
<path d="M711.679 419.388L711.412 418.184L859.412 448.242C858.003 444.506 856.568 440.816 855.107 437.17L708.572 405.249L708.312 404.044C709.26 409.084 710.382 414.199 711.679 419.388Z" fill="#E20000"/>
<path d="M908.58 390.106L909.39 390.999C903.286 378.511 896.346 366.449 888.618 354.896L861.519 449.512C865.919 461.224 869.805 472.719 873.176 484L908.58 390.106Z" fill="#E20000"/>
<path d="M887.347 550.855C890.404 577.231 889.929 601.792 885.903 624.265C896.261 607.391 936.33 537.166 932.161 467.062L887.347 550.855Z" fill="#E20000"/>
<path d="M733.272 474.441C739.987 485.983 747.468 497.063 755.664 507.605L755.448 506.276L885.356 548.55C883.507 533.806 880.775 519.186 877.175 504.769L733.272 474.441Z" fill="#E20000"/>
<path d="M803.724 334.259C781.282 296.44 762.96 272.073 762.697 271.724L763.122 271.028C742.614 273.324 726.968 285.347 716.99 304.169L803.724 334.259Z" fill="#E20000"/>
<path d="M878.5 503.315C878.843 504.681 879.196 506.052 879.523 507.411C882.687 520.434 885.139 533.62 886.868 546.91L931.257 463.912L932.008 464.856C931.171 452.52 928.774 440.339 924.875 428.606C923.322 424.002 921.667 419.454 919.908 414.961L878.5 503.315Z" fill="#E20000"/>
<path d="M833.872 389.71C824.376 370.465 814.574 352.688 805.391 337.081L716.667 306.299L716.487 305.116C709.125 319.444 704.985 337.596 704.403 358.324L833.872 389.71Z" fill="#E20000"/>
<path d="M885.639 550.892L756.681 508.928C805.811 572.153 878.588 624.58 883.237 627.899C888.367 603.046 888.637 576.958 885.639 550.892Z" fill="#E20000"/>
<path d="M876.503 502.324L876.542 502.24C872.072 484.795 866.666 467.603 860.347 450.739L711.982 420.608C713.771 427.631 715.882 434.763 718.317 442.004C721.888 452.333 726.393 462.314 731.777 471.823L876.503 502.324Z" fill="#E20000"/>
<path d="M741.817 607.186C842.79 605.994 943.761 606.677 1044.73 609.235C1053.41 609.455 1062.43 609.737 1070.1 612.038C1077.77 614.338 1083.67 619.272 1081.57 624.013C1042.16 625.179 1002.7 625.539 963.207 625.094C954.606 629.307 945.163 635.652 950.449 641.334C954.107 645.265 963.136 646.436 971.032 646.445C985.332 646.462 999.691 644.114 1013.78 645.492C1027.87 646.869 1041.93 654.279 1037.8 661.972C1034.67 667.814 1022.78 670.706 1011.95 671.223C1001.13 671.739 990.054 670.665 979.477 672.049C969.425 673.363 960.717 676.779 951.31 679.164C936.47 682.926 920.021 684.088 903.837 685.076C779.565 692.668 654.263 692.608 529.258 692.539C478.652 692.512 427.357 692.435 378.488 685.047C350.632 680.836 323.939 674.296 295.731 670.903C262.037 666.85 227.214 667.4 192.758 667.522C132.268 667.735 71.8289 666.569 11.4411 664.024C6.94722 663.835 1.43116 663.193 0.218415 660.755C-1.19692 657.909 4.54706 655.688 9.40234 654.553C36.9143 648.184 64.8887 644.012 93.0615 642.074C107.329 641.071 122.032 640.56 135.155 637.257C148.278 633.954 159.742 627.028 159.619 618.949C159.582 616.485 158.542 613.849 160.598 611.672C163.329 608.781 170.049 608.118 175.847 607.803C240.116 604.31 304.735 602.851 369.296 603.437C392.006 603.643 414.81 604.1 437.359 602.57C455.835 601.317 473.932 598.743 492.141 596.583C516.582 593.683 622.951 578.66 638.468 590.85C650.084 599.975 626.102 601.944 657.256 605.667C684.382 608.909 714.304 607.51 741.817 607.186Z" fill="#F2F2F2"/>
<path d="M686 290C719.137 290 746 263.137 746 230C746 196.863 719.137 170 686 170C652.863 170 626 196.863 626 230C626 263.137 652.863 290 686 290Z" fill="#2F2E41"/>
<path d="M751 211C784.137 211 811 184.137 811 151C811 117.863 784.137 91.0001 751 91.0001C717.863 91.0001 691 117.863 691 151C691 184.137 717.863 211 751 211Z" fill="#2F2E41"/>
<path d="M802.753 200.684C794.987 206.297 785.99 209.968 776.514 211.391C767.039 212.814 757.36 211.947 748.288 208.862C739.216 205.777 731.015 200.565 724.371 193.661C717.727 186.757 712.832 178.362 710.097 169.179C711.132 177.409 713.862 185.335 718.115 192.456C722.367 199.577 728.05 205.74 734.804 210.554C741.559 215.369 749.238 218.73 757.357 220.427C765.476 222.124 773.859 222.119 781.976 220.412C790.093 218.706 797.768 215.335 804.517 210.513C811.266 205.69 816.941 199.521 821.185 192.395C825.429 185.268 828.15 177.339 829.175 169.108C830.2 160.877 829.508 152.523 827.141 144.573C828.485 155.254 826.93 166.099 822.639 175.972C818.348 185.844 811.479 194.38 802.753 200.684V200.684Z" fill="#2F2E41"/>
<path d="M670.5 302.5C697.562 302.5 719.5 280.562 719.5 253.5C719.5 226.438 697.562 204.5 670.5 204.5C643.438 204.5 621.5 226.438 621.5 253.5C621.5 280.562 643.438 302.5 670.5 302.5Z" fill="#A0616A"/>
<path d="M653.5 293.5C653.5 293.5 673.5 323.5 670.5 336.5C670.5 336.5 657.5 342.5 657.5 344.5C657.5 346.5 645.5 365.5 645.5 365.5L631.5 384.5L625.5 409.5H654.5L686.5 384.5L717.5 350.5C717.5 350.5 738.5 340.5 749.5 348.5L755.5 353.5C755.5 353.5 734.5 325.5 724.5 319.5C724.5 319.5 706.5 297.5 708.5 275.5L653.5 293.5Z" fill="#A0616A"/>
<path d="M661.5 335.5C661.5 335.5 641.5 346.5 633.5 367.5C625.5 388.5 589.5 458.5 589.5 458.5C589.5 458.5 586.5 503.5 588.5 505.5C590.5 507.5 613.5 485.5 617.5 479.5C621.5 473.5 637.5 401.5 637.5 401.5L663.5 359.5L668.5 335.5H661.5Z" fill="#A0616A"/>
<path d="M598.5 461.5L589.5 458.5C589.5 458.5 534.5 424.5 531.5 409.5C528.5 394.5 484.5 344.5 483.5 371.5C482.5 398.5 515.5 428.5 515.5 428.5C515.5 428.5 587.5 529.5 591.5 500.5L598.5 461.5Z" fill="#A0616A"/>
<path d="M689.5 392.5C689.5 392.5 690.5 420.5 729.5 430.5C729.5 430.5 769.5 484.5 773.5 508.5C777.5 532.5 882.5 655.5 882.5 655.5C882.5 655.5 979.5 667.5 979.5 655.5C979.5 643.5 898.5 633.5 898.5 633.5C898.5 633.5 813.5 507.5 809.5 490.5C805.5 473.5 767.5 347.5 749.5 348.5C749.5 348.5 732.5 340.5 722.5 346.5C712.5 352.5 689.5 392.5 689.5 392.5Z" fill="#A0616A"/>
<path d="M572.5 505.5C572.5 505.5 502.5 411.5 487.5 405.5C472.5 399.5 453.5 395.5 442.5 409.5C431.5 423.5 301.5 587.5 301.5 587.5C301.5 587.5 255.5 634.5 232.5 625.5C232.5 625.5 220.5 635.5 248.5 637.5C276.5 639.5 302.5 631.5 302.5 631.5C302.5 631.5 319.5 634.5 331.5 637.5C343.5 640.5 358.5 641.5 357.5 633.5L353.5 601.5C353.5 601.5 456.5 516.5 459.5 480.5C459.5 480.5 457.5 463.5 459.5 465.5C461.5 467.5 503.5 512.5 522.5 522.5C541.5 532.5 588.5 546.5 588.5 546.5L572.5 505.5Z" fill="#A0616A"/>
<path opacity="0.1" d="M572.5 505.5C572.5 505.5 502.5 411.5 487.5 405.5C472.5 399.5 453.5 395.5 442.5 409.5C431.5 423.5 301.5 587.5 301.5 587.5C301.5 587.5 255.5 634.5 232.5 625.5C232.5 625.5 220.5 635.5 248.5 637.5C276.5 639.5 302.5 631.5 302.5 631.5C302.5 631.5 319.5 634.5 331.5 637.5C343.5 640.5 358.5 641.5 357.5 633.5L353.5 601.5C353.5 601.5 456.5 516.5 459.5 480.5C459.5 480.5 457.5 463.5 459.5 465.5C461.5 467.5 503.5 512.5 522.5 522.5C541.5 532.5 588.5 546.5 588.5 546.5L572.5 505.5Z" fill="black"/>
<path d="M583.5 518.5C583.5 518.5 491.5 483.5 479.5 475.5C467.5 467.5 424.5 451.5 402.5 469.5C380.5 487.5 273.5 570.5 237.5 578.5C201.5 586.5 139.5 605.5 139.5 605.5C139.5 605.5 99.5 608.5 142.5 625.5C142.5 625.5 195.5 630.5 204.5 638.5C213.5 646.5 243.5 656.5 245.5 643.5C247.5 630.5 253.5 613.5 264.5 611.5C275.5 609.5 407.5 573.5 427.5 534.5C427.5 534.5 472.5 559.5 500.5 588.5C528.5 617.5 594.5 633.5 594.5 633.5L583.5 518.5Z" fill="#A0616A"/>
<path d="M616.5 486.5C616.5 486.5 572.665 498.152 569.082 493.826C565.5 489.5 546.5 513.5 564.5 561.5C582.5 609.5 578.5 631.5 588.5 638.5C598.5 645.5 645.5 634.5 659.5 639.5C673.5 644.5 691.5 648.5 697.5 619.5C703.5 590.5 718.5 539.5 715.5 532.5C712.5 525.5 696.5 509.5 696.5 509.5L663.5 492.5L616.5 486.5Z" fill="#3F3D56"/>
<path d="M768 374C768 374 761.038 354.499 748.115 350.843C747.022 350.546 745.945 350.193 744.888 349.785C740.034 347.858 725.225 343.65 714.5 358.5C701.5 376.5 689.5 397.5 699.5 409.5C709.5 421.5 729.5 428.5 729.5 428.5L744.5 447.5C744.5 447.5 714.5 501.5 714.5 526.5C714.5 526.5 713.5 536.5 696.5 518.5C679.5 500.5 609.931 488.055 609.931 488.055C609.931 488.055 624.5 468.5 613.5 459.5C602.5 450.5 592.429 414.652 618.465 400.576L663 335L671 336C671 336 660.5 345.5 659.5 350.5C658.5 355.5 618.5 390.5 634.5 396.5C650.5 402.5 676.5 389.5 687.5 374.5C693.55 366.25 702.02 354.975 712.744 347.829C718.25 344.235 724.607 342.158 731.173 341.805C737.74 341.452 744.282 342.838 750.142 345.821L753.5 347.5C760.037 352.076 765.165 358.386 768.308 365.72L769.5 368.5L768 374Z" fill="#2F2E41"/>
<path d="M702 284C726.301 284 746 264.301 746 240C746 215.7 726.301 196 702 196C677.699 196 658 215.7 658 240C658 264.301 677.699 284 702 284Z" fill="#2F2E41"/>
<path d="M665 254C686.539 254 704 240.345 704 223.5C704 206.655 686.539 193 665 193C643.461 193 626 206.655 626 223.5C626 240.345 643.461 254 665 254Z" fill="#2F2E41"/>
<path d="M679.5 283C683.09 283 686 277.851 686 271.5C686 265.149 683.09 260 679.5 260C675.91 260 673 265.149 673 271.5C673 277.851 675.91 283 679.5 283Z" fill="#A0616A"/>
<path d="M690.5 170.36V250H667.5V170.36C667.5 168.939 668.065 167.575 669.07 166.57C670.075 165.565 671.438 165 672.86 165H685.14C686.562 165 687.925 165.565 688.93 166.57C689.935 167.575 690.5 168.939 690.5 170.36Z" fill="#FF6584"/>
<path d="M679 291C692.807 291 704 279.807 704 266C704 252.193 692.807 241 679 241C665.193 241 654 252.193 654 266C654 279.807 665.193 291 679 291Z" fill="#E20000"/>
<path d="M679 277C685.075 277 690 272.075 690 266C690 259.925 685.075 255 679 255C672.925 255 668 259.925 668 266C668 272.075 672.925 277 679 277Z" fill="#F2F2F2"/>
<path d="M679 269C680.657 269 682 267.657 682 266C682 264.343 680.657 263 679 263C677.343 263 676 264.343 676 266C676 267.657 677.343 269 679 269Z" fill="#FF6584"/>
<path opacity="0.1" d="M690.5 170.36V174H667.5V170.36C667.5 168.939 668.065 167.575 669.07 166.57C670.075 165.565 671.438 165 672.86 165H685.14C686.562 165 687.925 165.565 688.93 166.57C689.935 167.575 690.5 168.939 690.5 170.36Z" fill="black"/>
<path d="M423.354 367.646L482.234 308.766C483.254 307.746 484.464 306.937 485.797 306.385C487.129 305.833 488.558 305.549 490 305.549C491.442 305.549 492.871 305.833 494.203 306.385C495.536 306.937 496.746 307.746 497.766 308.766L550.734 361.734C552.794 363.794 553.951 366.587 553.951 369.5C553.951 372.413 552.794 375.207 550.734 377.266L495.72 432.28C493.758 434.242 491.126 435.389 488.354 435.49C485.581 435.591 482.873 434.639 480.774 432.825L423.94 383.724C422.797 382.737 421.871 381.525 421.218 380.164C420.565 378.802 420.199 377.321 420.144 375.813C420.089 374.304 420.346 372.8 420.898 371.395C421.45 369.99 422.286 368.714 423.354 367.646V367.646Z" fill="#2F2E41"/>
<path d="M440 377L491.5 325.5L534 368L484.5 417.5L440 377Z" fill="#F2F2F2"/>
<path d="M488 395.611C501.592 395.611 512.611 384.592 512.611 371C512.611 357.408 501.592 346.389 488 346.389C474.408 346.389 463.389 357.408 463.389 371C463.389 384.592 474.408 395.611 488 395.611Z" fill="#E20000"/>
<path opacity="0.1" d="M477.046 391.976C472.929 388.108 470.268 382.941 469.51 377.343C468.752 371.745 469.943 366.056 472.883 361.232C475.823 356.408 480.334 352.743 485.657 350.851C490.98 348.959 496.792 348.956 502.117 350.842C499.24 348.828 495.965 347.452 492.512 346.808C489.06 346.164 485.51 346.267 482.1 347.109C478.69 347.951 475.5 349.513 472.744 351.69C469.988 353.867 467.73 356.609 466.122 359.731C464.514 362.853 463.592 366.283 463.419 369.791C463.247 373.299 463.827 376.803 465.121 380.068C466.415 383.333 468.393 386.283 470.921 388.721C473.45 391.158 476.471 393.026 479.782 394.198C478.818 393.524 477.904 392.781 477.046 391.976V391.976Z" fill="black"/>
<path d="M500.1 366.109C503.035 368.867 503.19 378.794 498.709 383.564C494.227 388.333 486.806 386.139 483.871 383.381C480.936 380.623 483.599 378.346 488.08 373.577C492.562 368.808 497.165 363.352 500.1 366.109Z" fill="#F2F2F2"/>
<path d="M475.115 378.693C479.143 378.693 482.408 375.429 482.408 371.401C482.408 367.374 479.143 364.109 475.115 364.109C471.088 364.109 467.823 367.374 467.823 371.401C467.823 375.429 471.088 378.693 475.115 378.693Z" fill="#2F2E41"/>
<path d="M488.223 364.743C492.25 364.743 495.515 361.479 495.515 357.451C495.515 353.424 492.25 350.159 488.223 350.159C484.196 350.159 480.931 353.424 480.931 357.451C480.931 361.479 484.196 364.743 488.223 364.743Z" fill="#2F2E41"/>
<path d="M475.115 373.224C476.122 373.224 476.939 372.408 476.939 371.401C476.939 370.394 476.122 369.578 475.115 369.578C474.109 369.578 473.292 370.394 473.292 371.401C473.292 372.408 474.109 373.224 475.115 373.224Z" fill="#F2F2F2"/>
<path d="M474.331 367.823C474.834 367.823 475.242 367.415 475.242 366.912C475.242 366.408 474.834 366 474.331 366C473.827 366 473.419 366.408 473.419 366.912C473.419 367.415 473.827 367.823 474.331 367.823Z" fill="#F2F2F2"/>
<path d="M487.438 353.873C487.942 353.873 488.35 353.465 488.35 352.962C488.35 352.458 487.942 352.05 487.438 352.05C486.935 352.05 486.527 352.458 486.527 352.962C486.527 353.465 486.935 353.873 487.438 353.873Z" fill="#F2F2F2"/>
<path d="M488.223 359.274C489.23 359.274 490.046 358.458 490.046 357.451C490.046 356.444 489.23 355.628 488.223 355.628C487.216 355.628 486.4 356.444 486.4 357.451C486.4 358.458 487.216 359.274 488.223 359.274Z" fill="#F2F2F2"/>
</g>
<defs>
<clipPath id="clip0">
<rect width="1137.1" height="692.552" fill="white"/>
</clipPath>
</defs>
</svg>
