<svg width="477" height="468" viewBox="0 0 477 468" fill="none" xmlns="http://www.w3.org/2000/svg">
<g clip-path="url(#clip0)">
<path d="M238.498 467.998C370.217 467.998 476.996 363.234 476.996 234C476.996 104.767 370.217 0.0019989 238.498 0.0019989C106.779 0.0019989 0 104.767 0 234C0 363.234 106.779 467.998 238.498 467.998Z" fill="#415870"/>
<path d="M329.947 277.884C278.302 302.769 215.824 281.642 190.825 230.68C166.577 181.248 187.104 121.205 236.838 96.1329C237.491 95.8038 238.146 95.4811 238.803 95.1676C243.394 92.9711 242.158 86.2034 237.077 85.6787C212.673 83.1568 187.264 87.1988 163.648 98.7498C98.5331 130.598 71.3506 208.613 102.971 272.903C135.21 338.45 215.623 365.606 282.095 333.575C305.499 322.298 324.036 305.192 336.79 284.919C339.504 280.605 334.746 275.561 330.112 277.804C330.058 277.83 330.002 277.857 329.947 277.884Z" fill="#FEAF62"/>
<path d="M205.784 97.2023C205.784 114.346 191.62 128.243 174.146 128.243L80.314 127.288C71.5724 127.288 63.6674 130.764 57.9434 136.38C52.2194 141.996 48.6764 149.751 48.6764 158.328C48.6764 175.473 62.8401 189.369 80.314 189.369H116.332C125.074 189.369 132.979 192.845 138.703 198.461C144.427 204.077 147.97 211.832 147.97 220.41C147.97 237.554 133.806 251.45 116.332 251.45H6.33051C4.38338 251.45 2.47538 251.278 0.626075 250.944C0.207769 245.347 0.00280762 239.703 0.00280762 234.001C0.00280762 167.87 27.9604 108.148 72.9251 65.5886L174.146 66.1617C191.62 66.1617 205.784 80.0582 205.784 97.2023Z" fill="#62788E"/>
<path d="M477 234.001C477 269.569 468.911 303.293 454.435 333.484C446.735 332.863 439.823 329.549 434.674 324.497C428.95 318.881 425.407 311.125 425.407 302.548C425.407 285.404 411.243 271.508 393.769 271.508H357.751C349.009 271.508 341.104 268.031 335.38 262.415C329.656 256.799 326.113 249.045 326.113 240.467C326.113 223.323 340.277 209.426 357.751 209.426H393.769C402.511 209.426 410.416 205.95 416.14 200.334C421.864 194.718 425.407 186.963 425.407 178.386C425.407 161.242 439.57 147.345 457.044 147.345L460.121 147.364C471.013 174.165 477 203.4 477 234.001Z" fill="#62788E"/>
<path d="M331.601 100.354C336.171 100.354 339.876 96.7191 339.876 92.2353C339.876 87.7515 336.171 84.1166 331.601 84.1166C327.031 84.1166 323.326 87.7515 323.326 92.2353C323.326 96.7191 327.031 100.354 331.601 100.354Z" fill="#E8E4DB"/>
<path d="M295.095 175.319C299.665 175.319 303.37 171.684 303.37 167.2C303.37 162.716 299.665 159.082 295.095 159.082C290.525 159.082 286.82 162.716 286.82 167.2C286.82 171.684 290.525 175.319 295.095 175.319Z" fill="#E8E4DB"/>
<path d="M358.37 386.863C362.941 386.863 366.645 383.228 366.645 378.745C366.645 374.261 362.941 370.626 358.37 370.626C353.8 370.626 350.096 374.261 350.096 378.745C350.096 383.228 353.8 386.863 358.37 386.863Z" fill="#E8E4DB"/>
<path d="M235.237 44.481C239.807 44.481 243.512 40.8462 243.512 36.3623C243.512 31.8785 239.807 28.2436 235.237 28.2436C230.667 28.2436 226.963 31.8785 226.963 36.3623C226.963 40.8462 230.667 44.481 235.237 44.481Z" fill="#E8E4DB"/>
<path d="M216.255 333.865C220.825 333.865 224.53 330.23 224.53 325.746C224.53 321.262 220.825 317.628 216.255 317.628C211.685 317.628 207.98 321.262 207.98 325.746C207.98 330.23 211.685 333.865 216.255 333.865Z" fill="#E8E4DB"/>
<path d="M97.1226 350.569C101.693 350.569 105.397 346.935 105.397 342.451C105.397 337.967 101.693 334.332 97.1226 334.332C92.5525 334.332 88.8478 337.967 88.8478 342.451C88.8478 346.935 92.5525 350.569 97.1226 350.569Z" fill="#E8E4DB"/>
<path d="M148.424 417.322C152.994 417.322 156.699 413.687 156.699 409.203C156.699 404.719 152.994 401.084 148.424 401.084C143.854 401.084 140.15 404.719 140.15 409.203C140.15 413.687 143.854 417.322 148.424 417.322Z" fill="#E8E4DB"/>
<path d="M294.97 315.681C299.54 315.681 303.244 312.046 303.244 307.562C303.244 303.078 299.54 299.443 294.97 299.443C290.399 299.443 286.695 303.078 286.695 307.562C286.695 312.046 290.399 315.681 294.97 315.681Z" fill="#E8E4DB"/>
<path d="M164.058 182.54C168.628 182.54 172.333 178.905 172.333 174.421C172.333 169.938 168.628 166.303 164.058 166.303C159.488 166.303 155.783 169.938 155.783 174.421C155.783 178.905 159.488 182.54 164.058 182.54Z" fill="#E8E4DB"/>
<path d="M392.928 130.913C402.071 130.31 410.822 128.313 418.977 125.154C410.822 121.996 402.07 120 392.928 119.396C392.313 110.425 390.278 101.839 387.058 93.8377C383.84 101.839 381.805 110.426 381.189 119.396C372.046 119.999 363.295 121.995 355.14 125.154C363.295 128.312 372.047 130.309 381.189 130.913C381.804 139.884 383.839 148.469 387.058 156.471C390.278 148.469 392.313 139.883 392.928 130.913Z" fill="#FEAF62"/>
</g>
<defs>
<clipPath id="clip0">
<rect width="477" height="468" fill="white"/>
</clipPath>
</defs>
</svg>
