<svg height="512" viewBox="0 0 58 58" width="512" xmlns="http://www.w3.org/2000/svg"><g id="Page-1" fill="#000" fill-rule="evenodd"><g id="035---Sun" fill-rule="nonzero"><path id="Shape" d="m35.154 4.93 4.946-2.723 1.571 5.422c.1361582.47068749.4344144.87804458.842 1.15.4073293.27254372.8979145.39226776 1.385.338l5.61-.623-.623 5.61c-.0542678.4870855.0654563.9776707.338 1.385.2719554.4075856.6793125.7058418 1.15.842l5.42 1.569-2.723 4.946c-.2368083.4291752-.3140369.9283271-.218 1.409.0959626.4805529.3583566.9118564.741 1.218l4.407 3.527-4.407 3.526c-.3826434.3061436-.6450374.7374471-.741 1.218-.0960369.4806729-.0188083.9798248.218 1.409l2.723 4.947-5.422 1.571c-.4706875.1361582-.8780446.4344144-1.15.842-.2725437.4073293-.3922678.8979145-.338 1.385l.623 5.61-5.61-.623c-.4870855-.0542678-.9776707.0654563-1.385.338-.4075856.2719554-.7058418.6793125-.842 1.15l-1.569 5.42-4.946-2.723c-.4291752-.2368083-.9283271-.3140369-1.409-.218-.4805529.0959626-.9118564.3583566-1.218.741l-3.527 4.407-3.526-4.407c-.3061436-.3826434-.7374471-.6450374-1.218-.741-.4806729-.0960369-.9798248-.0188083-1.409.218l-4.947 2.723-1.571-5.422c-.1361582-.4706875-.4344144-.8780446-.842-1.15-.4073293-.2725437-.8979145-.3922678-1.385-.338l-5.61.623.623-5.61c.05426776-.4870855-.06545628-.9776707-.338-1.385-.27195542-.4075856-.67931251-.7058418-1.15-.842l-5.42-1.569 2.723-4.946c.23680826-.4291752.31403688-.9283271.218-1.409-.09596255-.4805529-.35835658-.9118564-.741-1.218l-4.407-3.527 4.407-3.526c.38264342-.3061436.64503745-.7374471.741-1.218.09603688-.4806729.01880826-.9798248-.218-1.409l-2.723-4.947 5.422-1.571c.47068749-.1361582.87804458-.4344144 1.15-.842.27254372-.4073293.39226776-.8979145.338-1.385l-.623-5.61 5.61.623c.4870855.05426776.9776707-.06545628 1.385-.338.4075856-.27195542.7058418-.67931251.842-1.15l1.569-5.42 4.946 2.723c.4291752.23680826.9283271.31403688 1.409.218.4805529-.09596255.9118564-.35835658 1.218-.741l3.527-4.407 3.526 4.407c.3061436.38264342.7374471.64503745 1.218.741.480993.09628129.9805427.01904593 1.41-.218z" fill="#f29c1f"/><circle id="Oval" cx="29" cy="29" fill="#e57e25" r="22"/><circle id="Oval" cx="29" cy="29" fill="#f0c419" r="20"/><ellipse id="Oval" cx="23.443" cy="23.885" fill="#f3d55b" rx="14.415" ry="11.039" transform="matrix(.646 -.764 .764 .646 -9.933 26.362)"/><g fill="#f9eab0"><path id="Shape" d="m27 14.124c-.527117-.0016856-.9624152-.4122476-.9949014-.9383653-.0324862-.5261176.348996-.9871134.8719014-1.0536347.7042291-.0881484 1.4132756-.1322341 2.123-.132.5522847 0 1 .4477153 1 1s-.4477153 1-1 1c-.6271276-.0000707-1.2536584.03867-1.876.116-.0410945.0055719-.0825302.0082452-.124.008z"/><path id="Shape" d="m13 30c-.5522847 0-1-.4477153-1-1-.0195547-6.9343245 4.1900717-13.1800233 10.625-15.764.5109123-.2026584 1.089615.0450087 1.295734.5545348.2061189.5095261-.0376176 1.0898952-.545734 1.2994652-5.6779918 2.2801651-9.3923646 7.7913039-9.375 13.91 0 .2652165-.1053568.5195704-.2928932.7071068s-.4418903.2928932-.7071068.2928932z"/></g></g></g></svg>